<?xml version="1.0" standalone="no"?><!DOCTYPE svg PUBLIC "-//W3C//DTD SVG 1.1//EN" "http://www.w3.org/Graphics/SVG/1.1/DTD/svg11.dtd">
<svg x="0.0000mm" y="0.0000mm" width="39.1580mm" height="39.1580mm" viewBox="0.0000 0.0000 39.1580 39.1580" version="1.1" xmlns="http://www.w3.org/2000/svg" shape-rendering="crispEdges">
<title>MeCard</title>
<g fill="rgb(0%,0%,0%)">
</g>
<g fill="rgba(100%,100%,100%,0%)">
<rect x="0.0000" y="0.0000" width="39.1580" height="39.1580" />
</g>
<g fill="rgb(0%,0%,0%)">
</g>
<g fill="rgb(0%,0%,0%)">
<rect x="0.0000" y="0.0000" width="1.0583" height="1.0583" />
<rect x="1.0583" y="0.0000" width="1.0583" height="1.0583" />
<rect x="2.1166" y="0.0000" width="1.0583" height="1.0583" />
<rect x="3.1750" y="0.0000" width="1.0583" height="1.0583" />
<rect x="4.2333" y="0.0000" width="1.0583" height="1.0583" />
<rect x="5.2916" y="0.0000" width="1.0583" height="1.0583" />
<rect x="6.3499" y="0.0000" width="1.0583" height="1.0583" />
<rect x="8.4666" y="0.0000" width="1.0583" height="1.0583" />
<rect x="14.8165" y="0.0000" width="1.0583" height="1.0583" />
<rect x="15.8749" y="0.0000" width="1.0583" height="1.0583" />
<rect x="24.3415" y="0.0000" width="1.0583" height="1.0583" />
<rect x="25.3998" y="0.0000" width="1.0583" height="1.0583" />
<rect x="28.5748" y="0.0000" width="1.0583" height="1.0583" />
<rect x="29.6331" y="0.0000" width="1.0583" height="1.0583" />
<rect x="31.7497" y="0.0000" width="1.0583" height="1.0583" />
<rect x="32.8081" y="0.0000" width="1.0583" height="1.0583" />
<rect x="33.8664" y="0.0000" width="1.0583" height="1.0583" />
<rect x="34.9247" y="0.0000" width="1.0583" height="1.0583" />
<rect x="35.9830" y="0.0000" width="1.0583" height="1.0583" />
<rect x="37.0414" y="0.0000" width="1.0583" height="1.0583" />
<rect x="38.0997" y="0.0000" width="1.0583" height="1.0583" />
</g>
<g fill="rgb(0%,0%,0%)">
<rect x="0.0000" y="1.0583" width="1.0583" height="1.0583" />
<rect x="6.3499" y="1.0583" width="1.0583" height="1.0583" />
<rect x="8.4666" y="1.0583" width="1.0583" height="1.0583" />
<rect x="11.6416" y="1.0583" width="1.0583" height="1.0583" />
<rect x="12.6999" y="1.0583" width="1.0583" height="1.0583" />
<rect x="14.8165" y="1.0583" width="1.0583" height="1.0583" />
<rect x="15.8749" y="1.0583" width="1.0583" height="1.0583" />
<rect x="16.9332" y="1.0583" width="1.0583" height="1.0583" />
<rect x="19.0498" y="1.0583" width="1.0583" height="1.0583" />
<rect x="20.1082" y="1.0583" width="1.0583" height="1.0583" />
<rect x="21.1665" y="1.0583" width="1.0583" height="1.0583" />
<rect x="22.2248" y="1.0583" width="1.0583" height="1.0583" />
<rect x="24.3415" y="1.0583" width="1.0583" height="1.0583" />
<rect x="27.5164" y="1.0583" width="1.0583" height="1.0583" />
<rect x="29.6331" y="1.0583" width="1.0583" height="1.0583" />
<rect x="31.7497" y="1.0583" width="1.0583" height="1.0583" />
<rect x="38.0997" y="1.0583" width="1.0583" height="1.0583" />
</g>
<g fill="rgb(0%,0%,0%)">
<rect x="0.0000" y="2.1166" width="1.0583" height="1.0583" />
<rect x="2.1166" y="2.1166" width="1.0583" height="1.0583" />
<rect x="3.1750" y="2.1166" width="1.0583" height="1.0583" />
<rect x="4.2333" y="2.1166" width="1.0583" height="1.0583" />
<rect x="6.3499" y="2.1166" width="1.0583" height="1.0583" />
<rect x="8.4666" y="2.1166" width="1.0583" height="1.0583" />
<rect x="9.5249" y="2.1166" width="1.0583" height="1.0583" />
<rect x="12.6999" y="2.1166" width="1.0583" height="1.0583" />
<rect x="14.8165" y="2.1166" width="1.0583" height="1.0583" />
<rect x="16.9332" y="2.1166" width="1.0583" height="1.0583" />
<rect x="19.0498" y="2.1166" width="1.0583" height="1.0583" />
<rect x="20.1082" y="2.1166" width="1.0583" height="1.0583" />
<rect x="29.6331" y="2.1166" width="1.0583" height="1.0583" />
<rect x="31.7497" y="2.1166" width="1.0583" height="1.0583" />
<rect x="33.8664" y="2.1166" width="1.0583" height="1.0583" />
<rect x="34.9247" y="2.1166" width="1.0583" height="1.0583" />
<rect x="35.9830" y="2.1166" width="1.0583" height="1.0583" />
<rect x="38.0997" y="2.1166" width="1.0583" height="1.0583" />
</g>
<g fill="rgb(0%,0%,0%)">
<rect x="0.0000" y="3.1750" width="1.0583" height="1.0583" />
<rect x="2.1166" y="3.1750" width="1.0583" height="1.0583" />
<rect x="3.1750" y="3.1750" width="1.0583" height="1.0583" />
<rect x="4.2333" y="3.1750" width="1.0583" height="1.0583" />
<rect x="6.3499" y="3.1750" width="1.0583" height="1.0583" />
<rect x="8.4666" y="3.1750" width="1.0583" height="1.0583" />
<rect x="9.5249" y="3.1750" width="1.0583" height="1.0583" />
<rect x="10.5832" y="3.1750" width="1.0583" height="1.0583" />
<rect x="12.6999" y="3.1750" width="1.0583" height="1.0583" />
<rect x="14.8165" y="3.1750" width="1.0583" height="1.0583" />
<rect x="17.9915" y="3.1750" width="1.0583" height="1.0583" />
<rect x="19.0498" y="3.1750" width="1.0583" height="1.0583" />
<rect x="20.1082" y="3.1750" width="1.0583" height="1.0583" />
<rect x="21.1665" y="3.1750" width="1.0583" height="1.0583" />
<rect x="23.2831" y="3.1750" width="1.0583" height="1.0583" />
<rect x="24.3415" y="3.1750" width="1.0583" height="1.0583" />
<rect x="29.6331" y="3.1750" width="1.0583" height="1.0583" />
<rect x="31.7497" y="3.1750" width="1.0583" height="1.0583" />
<rect x="33.8664" y="3.1750" width="1.0583" height="1.0583" />
<rect x="34.9247" y="3.1750" width="1.0583" height="1.0583" />
<rect x="35.9830" y="3.1750" width="1.0583" height="1.0583" />
<rect x="38.0997" y="3.1750" width="1.0583" height="1.0583" />
</g>
<g fill="rgb(0%,0%,0%)">
<rect x="0.0000" y="4.2333" width="1.0583" height="1.0583" />
<rect x="2.1166" y="4.2333" width="1.0583" height="1.0583" />
<rect x="3.1750" y="4.2333" width="1.0583" height="1.0583" />
<rect x="4.2333" y="4.2333" width="1.0583" height="1.0583" />
<rect x="6.3499" y="4.2333" width="1.0583" height="1.0583" />
<rect x="9.5249" y="4.2333" width="1.0583" height="1.0583" />
<rect x="10.5832" y="4.2333" width="1.0583" height="1.0583" />
<rect x="12.6999" y="4.2333" width="1.0583" height="1.0583" />
<rect x="14.8165" y="4.2333" width="1.0583" height="1.0583" />
<rect x="15.8749" y="4.2333" width="1.0583" height="1.0583" />
<rect x="20.1082" y="4.2333" width="1.0583" height="1.0583" />
<rect x="26.4581" y="4.2333" width="1.0583" height="1.0583" />
<rect x="27.5164" y="4.2333" width="1.0583" height="1.0583" />
<rect x="28.5748" y="4.2333" width="1.0583" height="1.0583" />
<rect x="29.6331" y="4.2333" width="1.0583" height="1.0583" />
<rect x="31.7497" y="4.2333" width="1.0583" height="1.0583" />
<rect x="33.8664" y="4.2333" width="1.0583" height="1.0583" />
<rect x="34.9247" y="4.2333" width="1.0583" height="1.0583" />
<rect x="35.9830" y="4.2333" width="1.0583" height="1.0583" />
<rect x="38.0997" y="4.2333" width="1.0583" height="1.0583" />
</g>
<g fill="rgb(0%,0%,0%)">
<rect x="0.0000" y="5.2916" width="1.0583" height="1.0583" />
<rect x="6.3499" y="5.2916" width="1.0583" height="1.0583" />
<rect x="8.4666" y="5.2916" width="1.0583" height="1.0583" />
<rect x="9.5249" y="5.2916" width="1.0583" height="1.0583" />
<rect x="10.5832" y="5.2916" width="1.0583" height="1.0583" />
<rect x="14.8165" y="5.2916" width="1.0583" height="1.0583" />
<rect x="17.9915" y="5.2916" width="1.0583" height="1.0583" />
<rect x="19.0498" y="5.2916" width="1.0583" height="1.0583" />
<rect x="22.2248" y="5.2916" width="1.0583" height="1.0583" />
<rect x="27.5164" y="5.2916" width="1.0583" height="1.0583" />
<rect x="29.6331" y="5.2916" width="1.0583" height="1.0583" />
<rect x="31.7497" y="5.2916" width="1.0583" height="1.0583" />
<rect x="38.0997" y="5.2916" width="1.0583" height="1.0583" />
</g>
<g fill="rgb(0%,0%,0%)">
<rect x="0.0000" y="6.3499" width="1.0583" height="1.0583" />
<rect x="1.0583" y="6.3499" width="1.0583" height="1.0583" />
<rect x="2.1166" y="6.3499" width="1.0583" height="1.0583" />
<rect x="3.1750" y="6.3499" width="1.0583" height="1.0583" />
<rect x="4.2333" y="6.3499" width="1.0583" height="1.0583" />
<rect x="5.2916" y="6.3499" width="1.0583" height="1.0583" />
<rect x="6.3499" y="6.3499" width="1.0583" height="1.0583" />
<rect x="8.4666" y="6.3499" width="1.0583" height="1.0583" />
<rect x="10.5832" y="6.3499" width="1.0583" height="1.0583" />
<rect x="12.6999" y="6.3499" width="1.0583" height="1.0583" />
<rect x="14.8165" y="6.3499" width="1.0583" height="1.0583" />
<rect x="16.9332" y="6.3499" width="1.0583" height="1.0583" />
<rect x="19.0498" y="6.3499" width="1.0583" height="1.0583" />
<rect x="21.1665" y="6.3499" width="1.0583" height="1.0583" />
<rect x="23.2831" y="6.3499" width="1.0583" height="1.0583" />
<rect x="25.3998" y="6.3499" width="1.0583" height="1.0583" />
<rect x="27.5164" y="6.3499" width="1.0583" height="1.0583" />
<rect x="29.6331" y="6.3499" width="1.0583" height="1.0583" />
<rect x="31.7497" y="6.3499" width="1.0583" height="1.0583" />
<rect x="32.8081" y="6.3499" width="1.0583" height="1.0583" />
<rect x="33.8664" y="6.3499" width="1.0583" height="1.0583" />
<rect x="34.9247" y="6.3499" width="1.0583" height="1.0583" />
<rect x="35.9830" y="6.3499" width="1.0583" height="1.0583" />
<rect x="37.0414" y="6.3499" width="1.0583" height="1.0583" />
<rect x="38.0997" y="6.3499" width="1.0583" height="1.0583" />
</g>
<g fill="rgb(0%,0%,0%)">
<rect x="10.5832" y="7.4083" width="1.0583" height="1.0583" />
<rect x="11.6416" y="7.4083" width="1.0583" height="1.0583" />
<rect x="14.8165" y="7.4083" width="1.0583" height="1.0583" />
<rect x="16.9332" y="7.4083" width="1.0583" height="1.0583" />
<rect x="17.9915" y="7.4083" width="1.0583" height="1.0583" />
<rect x="27.5164" y="7.4083" width="1.0583" height="1.0583" />
<rect x="29.6331" y="7.4083" width="1.0583" height="1.0583" />
</g>
<g fill="rgb(0%,0%,0%)">
<rect x="0.0000" y="8.4666" width="1.0583" height="1.0583" />
<rect x="1.0583" y="8.4666" width="1.0583" height="1.0583" />
<rect x="4.2333" y="8.4666" width="1.0583" height="1.0583" />
<rect x="5.2916" y="8.4666" width="1.0583" height="1.0583" />
<rect x="6.3499" y="8.4666" width="1.0583" height="1.0583" />
<rect x="10.5832" y="8.4666" width="1.0583" height="1.0583" />
<rect x="12.6999" y="8.4666" width="1.0583" height="1.0583" />
<rect x="17.9915" y="8.4666" width="1.0583" height="1.0583" />
<rect x="19.0498" y="8.4666" width="1.0583" height="1.0583" />
<rect x="20.1082" y="8.4666" width="1.0583" height="1.0583" />
<rect x="21.1665" y="8.4666" width="1.0583" height="1.0583" />
<rect x="27.5164" y="8.4666" width="1.0583" height="1.0583" />
<rect x="29.6331" y="8.4666" width="1.0583" height="1.0583" />
<rect x="32.8081" y="8.4666" width="1.0583" height="1.0583" />
<rect x="34.9247" y="8.4666" width="1.0583" height="1.0583" />
<rect x="35.9830" y="8.4666" width="1.0583" height="1.0583" />
<rect x="37.0414" y="8.4666" width="1.0583" height="1.0583" />
<rect x="38.0997" y="8.4666" width="1.0583" height="1.0583" />
</g>
<g fill="rgb(0%,0%,0%)">
<rect x="2.1166" y="9.5249" width="1.0583" height="1.0583" />
<rect x="4.2333" y="9.5249" width="1.0583" height="1.0583" />
<rect x="5.2916" y="9.5249" width="1.0583" height="1.0583" />
<rect x="7.4083" y="9.5249" width="1.0583" height="1.0583" />
<rect x="13.7582" y="9.5249" width="1.0583" height="1.0583" />
<rect x="14.8165" y="9.5249" width="1.0583" height="1.0583" />
<rect x="15.8749" y="9.5249" width="1.0583" height="1.0583" />
<rect x="16.9332" y="9.5249" width="1.0583" height="1.0583" />
<rect x="17.9915" y="9.5249" width="1.0583" height="1.0583" />
<rect x="21.1665" y="9.5249" width="1.0583" height="1.0583" />
<rect x="32.8081" y="9.5249" width="1.0583" height="1.0583" />
<rect x="33.8664" y="9.5249" width="1.0583" height="1.0583" />
<rect x="35.9830" y="9.5249" width="1.0583" height="1.0583" />
<rect x="38.0997" y="9.5249" width="1.0583" height="1.0583" />
</g>
<g fill="rgb(0%,0%,0%)">
<rect x="2.1166" y="10.5832" width="1.0583" height="1.0583" />
<rect x="4.2333" y="10.5832" width="1.0583" height="1.0583" />
<rect x="5.2916" y="10.5832" width="1.0583" height="1.0583" />
<rect x="6.3499" y="10.5832" width="1.0583" height="1.0583" />
<rect x="7.4083" y="10.5832" width="1.0583" height="1.0583" />
<rect x="8.4666" y="10.5832" width="1.0583" height="1.0583" />
<rect x="10.5832" y="10.5832" width="1.0583" height="1.0583" />
<rect x="13.7582" y="10.5832" width="1.0583" height="1.0583" />
<rect x="15.8749" y="10.5832" width="1.0583" height="1.0583" />
<rect x="20.1082" y="10.5832" width="1.0583" height="1.0583" />
<rect x="21.1665" y="10.5832" width="1.0583" height="1.0583" />
<rect x="23.2831" y="10.5832" width="1.0583" height="1.0583" />
<rect x="25.3998" y="10.5832" width="1.0583" height="1.0583" />
<rect x="26.4581" y="10.5832" width="1.0583" height="1.0583" />
<rect x="30.6914" y="10.5832" width="1.0583" height="1.0583" />
<rect x="31.7497" y="10.5832" width="1.0583" height="1.0583" />
<rect x="33.8664" y="10.5832" width="1.0583" height="1.0583" />
<rect x="34.9247" y="10.5832" width="1.0583" height="1.0583" />
<rect x="38.0997" y="10.5832" width="1.0583" height="1.0583" />
</g>
<g fill="rgb(0%,0%,0%)">
<rect x="0.0000" y="11.6416" width="1.0583" height="1.0583" />
<rect x="1.0583" y="11.6416" width="1.0583" height="1.0583" />
<rect x="3.1750" y="11.6416" width="1.0583" height="1.0583" />
<rect x="5.2916" y="11.6416" width="1.0583" height="1.0583" />
<rect x="9.5249" y="11.6416" width="1.0583" height="1.0583" />
<rect x="12.6999" y="11.6416" width="1.0583" height="1.0583" />
<rect x="14.8165" y="11.6416" width="1.0583" height="1.0583" />
<rect x="15.8749" y="11.6416" width="1.0583" height="1.0583" />
<rect x="16.9332" y="11.6416" width="1.0583" height="1.0583" />
<rect x="19.0498" y="11.6416" width="1.0583" height="1.0583" />
<rect x="20.1082" y="11.6416" width="1.0583" height="1.0583" />
<rect x="24.3415" y="11.6416" width="1.0583" height="1.0583" />
<rect x="26.4581" y="11.6416" width="1.0583" height="1.0583" />
<rect x="27.5164" y="11.6416" width="1.0583" height="1.0583" />
<rect x="29.6331" y="11.6416" width="1.0583" height="1.0583" />
<rect x="30.6914" y="11.6416" width="1.0583" height="1.0583" />
<rect x="31.7497" y="11.6416" width="1.0583" height="1.0583" />
<rect x="33.8664" y="11.6416" width="1.0583" height="1.0583" />
<rect x="34.9247" y="11.6416" width="1.0583" height="1.0583" />
<rect x="37.0414" y="11.6416" width="1.0583" height="1.0583" />
<rect x="38.0997" y="11.6416" width="1.0583" height="1.0583" />
</g>
<g fill="rgb(0%,0%,0%)">
<rect x="0.0000" y="12.6999" width="1.0583" height="1.0583" />
<rect x="2.1166" y="12.6999" width="1.0583" height="1.0583" />
<rect x="4.2333" y="12.6999" width="1.0583" height="1.0583" />
<rect x="6.3499" y="12.6999" width="1.0583" height="1.0583" />
<rect x="9.5249" y="12.6999" width="1.0583" height="1.0583" />
<rect x="11.6416" y="12.6999" width="1.0583" height="1.0583" />
<rect x="16.9332" y="12.6999" width="1.0583" height="1.0583" />
<rect x="17.9915" y="12.6999" width="1.0583" height="1.0583" />
<rect x="19.0498" y="12.6999" width="1.0583" height="1.0583" />
<rect x="21.1665" y="12.6999" width="1.0583" height="1.0583" />
<rect x="25.3998" y="12.6999" width="1.0583" height="1.0583" />
<rect x="27.5164" y="12.6999" width="1.0583" height="1.0583" />
<rect x="28.5748" y="12.6999" width="1.0583" height="1.0583" />
<rect x="30.6914" y="12.6999" width="1.0583" height="1.0583" />
<rect x="31.7497" y="12.6999" width="1.0583" height="1.0583" />
<rect x="33.8664" y="12.6999" width="1.0583" height="1.0583" />
<rect x="37.0414" y="12.6999" width="1.0583" height="1.0583" />
</g>
<g fill="rgb(0%,0%,0%)">
<rect x="1.0583" y="13.7582" width="1.0583" height="1.0583" />
<rect x="3.1750" y="13.7582" width="1.0583" height="1.0583" />
<rect x="4.2333" y="13.7582" width="1.0583" height="1.0583" />
<rect x="5.2916" y="13.7582" width="1.0583" height="1.0583" />
<rect x="8.4666" y="13.7582" width="1.0583" height="1.0583" />
<rect x="9.5249" y="13.7582" width="1.0583" height="1.0583" />
<rect x="10.5832" y="13.7582" width="1.0583" height="1.0583" />
<rect x="12.6999" y="13.7582" width="1.0583" height="1.0583" />
<rect x="13.7582" y="13.7582" width="1.0583" height="1.0583" />
<rect x="14.8165" y="13.7582" width="1.0583" height="1.0583" />
<rect x="17.9915" y="13.7582" width="1.0583" height="1.0583" />
<rect x="19.0498" y="13.7582" width="1.0583" height="1.0583" />
<rect x="21.1665" y="13.7582" width="1.0583" height="1.0583" />
<rect x="22.2248" y="13.7582" width="1.0583" height="1.0583" />
<rect x="23.2831" y="13.7582" width="1.0583" height="1.0583" />
<rect x="24.3415" y="13.7582" width="1.0583" height="1.0583" />
<rect x="27.5164" y="13.7582" width="1.0583" height="1.0583" />
<rect x="28.5748" y="13.7582" width="1.0583" height="1.0583" />
<rect x="35.9830" y="13.7582" width="1.0583" height="1.0583" />
<rect x="37.0414" y="13.7582" width="1.0583" height="1.0583" />
</g>
<g fill="rgb(0%,0%,0%)">
<rect x="0.0000" y="14.8165" width="1.0583" height="1.0583" />
<rect x="4.2333" y="14.8165" width="1.0583" height="1.0583" />
<rect x="6.3499" y="14.8165" width="1.0583" height="1.0583" />
<rect x="8.4666" y="14.8165" width="1.0583" height="1.0583" />
<rect x="11.6416" y="14.8165" width="1.0583" height="1.0583" />
<rect x="12.6999" y="14.8165" width="1.0583" height="1.0583" />
<rect x="13.7582" y="14.8165" width="1.0583" height="1.0583" />
<rect x="21.1665" y="14.8165" width="1.0583" height="1.0583" />
<rect x="22.2248" y="14.8165" width="1.0583" height="1.0583" />
<rect x="23.2831" y="14.8165" width="1.0583" height="1.0583" />
<rect x="24.3415" y="14.8165" width="1.0583" height="1.0583" />
<rect x="26.4581" y="14.8165" width="1.0583" height="1.0583" />
<rect x="28.5748" y="14.8165" width="1.0583" height="1.0583" />
<rect x="30.6914" y="14.8165" width="1.0583" height="1.0583" />
<rect x="31.7497" y="14.8165" width="1.0583" height="1.0583" />
<rect x="32.8081" y="14.8165" width="1.0583" height="1.0583" />
<rect x="37.0414" y="14.8165" width="1.0583" height="1.0583" />
</g>
<g fill="rgb(0%,0%,0%)">
<rect x="1.0583" y="15.8749" width="1.0583" height="1.0583" />
<rect x="2.1166" y="15.8749" width="1.0583" height="1.0583" />
<rect x="5.2916" y="15.8749" width="1.0583" height="1.0583" />
<rect x="7.4083" y="15.8749" width="1.0583" height="1.0583" />
<rect x="9.5249" y="15.8749" width="1.0583" height="1.0583" />
<rect x="11.6416" y="15.8749" width="1.0583" height="1.0583" />
<rect x="14.8165" y="15.8749" width="1.0583" height="1.0583" />
<rect x="16.9332" y="15.8749" width="1.0583" height="1.0583" />
<rect x="17.9915" y="15.8749" width="1.0583" height="1.0583" />
<rect x="19.0498" y="15.8749" width="1.0583" height="1.0583" />
<rect x="20.1082" y="15.8749" width="1.0583" height="1.0583" />
<rect x="27.5164" y="15.8749" width="1.0583" height="1.0583" />
<rect x="29.6331" y="15.8749" width="1.0583" height="1.0583" />
<rect x="30.6914" y="15.8749" width="1.0583" height="1.0583" />
<rect x="31.7497" y="15.8749" width="1.0583" height="1.0583" />
<rect x="38.0997" y="15.8749" width="1.0583" height="1.0583" />
</g>
<g fill="rgb(0%,0%,0%)">
<rect x="3.1750" y="16.9332" width="1.0583" height="1.0583" />
<rect x="4.2333" y="16.9332" width="1.0583" height="1.0583" />
<rect x="5.2916" y="16.9332" width="1.0583" height="1.0583" />
<rect x="6.3499" y="16.9332" width="1.0583" height="1.0583" />
<rect x="8.4666" y="16.9332" width="1.0583" height="1.0583" />
<rect x="9.5249" y="16.9332" width="1.0583" height="1.0583" />
<rect x="10.5832" y="16.9332" width="1.0583" height="1.0583" />
<rect x="12.6999" y="16.9332" width="1.0583" height="1.0583" />
<rect x="14.8165" y="16.9332" width="1.0583" height="1.0583" />
<rect x="15.8749" y="16.9332" width="1.0583" height="1.0583" />
<rect x="20.1082" y="16.9332" width="1.0583" height="1.0583" />
<rect x="23.2831" y="16.9332" width="1.0583" height="1.0583" />
<rect x="26.4581" y="16.9332" width="1.0583" height="1.0583" />
<rect x="31.7497" y="16.9332" width="1.0583" height="1.0583" />
<rect x="34.9247" y="16.9332" width="1.0583" height="1.0583" />
<rect x="35.9830" y="16.9332" width="1.0583" height="1.0583" />
<rect x="38.0997" y="16.9332" width="1.0583" height="1.0583" />
</g>
<g fill="rgb(0%,0%,0%)">
<rect x="0.0000" y="17.9915" width="1.0583" height="1.0583" />
<rect x="1.0583" y="17.9915" width="1.0583" height="1.0583" />
<rect x="4.2333" y="17.9915" width="1.0583" height="1.0583" />
<rect x="5.2916" y="17.9915" width="1.0583" height="1.0583" />
<rect x="7.4083" y="17.9915" width="1.0583" height="1.0583" />
<rect x="8.4666" y="17.9915" width="1.0583" height="1.0583" />
<rect x="10.5832" y="17.9915" width="1.0583" height="1.0583" />
<rect x="14.8165" y="17.9915" width="1.0583" height="1.0583" />
<rect x="17.9915" y="17.9915" width="1.0583" height="1.0583" />
<rect x="19.0498" y="17.9915" width="1.0583" height="1.0583" />
<rect x="23.2831" y="17.9915" width="1.0583" height="1.0583" />
<rect x="25.3998" y="17.9915" width="1.0583" height="1.0583" />
<rect x="27.5164" y="17.9915" width="1.0583" height="1.0583" />
<rect x="28.5748" y="17.9915" width="1.0583" height="1.0583" />
<rect x="29.6331" y="17.9915" width="1.0583" height="1.0583" />
<rect x="31.7497" y="17.9915" width="1.0583" height="1.0583" />
<rect x="33.8664" y="17.9915" width="1.0583" height="1.0583" />
<rect x="34.9247" y="17.9915" width="1.0583" height="1.0583" />
<rect x="35.9830" y="17.9915" width="1.0583" height="1.0583" />
<rect x="37.0414" y="17.9915" width="1.0583" height="1.0583" />
</g>
<g fill="rgb(0%,0%,0%)">
<rect x="0.0000" y="19.0498" width="1.0583" height="1.0583" />
<rect x="1.0583" y="19.0498" width="1.0583" height="1.0583" />
<rect x="4.2333" y="19.0498" width="1.0583" height="1.0583" />
<rect x="6.3499" y="19.0498" width="1.0583" height="1.0583" />
<rect x="7.4083" y="19.0498" width="1.0583" height="1.0583" />
<rect x="9.5249" y="19.0498" width="1.0583" height="1.0583" />
<rect x="10.5832" y="19.0498" width="1.0583" height="1.0583" />
<rect x="13.7582" y="19.0498" width="1.0583" height="1.0583" />
<rect x="15.8749" y="19.0498" width="1.0583" height="1.0583" />
<rect x="21.1665" y="19.0498" width="1.0583" height="1.0583" />
<rect x="22.2248" y="19.0498" width="1.0583" height="1.0583" />
<rect x="23.2831" y="19.0498" width="1.0583" height="1.0583" />
<rect x="26.4581" y="19.0498" width="1.0583" height="1.0583" />
<rect x="28.5748" y="19.0498" width="1.0583" height="1.0583" />
<rect x="30.6914" y="19.0498" width="1.0583" height="1.0583" />
<rect x="31.7497" y="19.0498" width="1.0583" height="1.0583" />
<rect x="33.8664" y="19.0498" width="1.0583" height="1.0583" />
<rect x="34.9247" y="19.0498" width="1.0583" height="1.0583" />
<rect x="35.9830" y="19.0498" width="1.0583" height="1.0583" />
<rect x="37.0414" y="19.0498" width="1.0583" height="1.0583" />
</g>
<g fill="rgb(0%,0%,0%)">
<rect x="2.1166" y="20.1082" width="1.0583" height="1.0583" />
<rect x="3.1750" y="20.1082" width="1.0583" height="1.0583" />
<rect x="7.4083" y="20.1082" width="1.0583" height="1.0583" />
<rect x="12.6999" y="20.1082" width="1.0583" height="1.0583" />
<rect x="13.7582" y="20.1082" width="1.0583" height="1.0583" />
<rect x="14.8165" y="20.1082" width="1.0583" height="1.0583" />
<rect x="16.9332" y="20.1082" width="1.0583" height="1.0583" />
<rect x="19.0498" y="20.1082" width="1.0583" height="1.0583" />
<rect x="20.1082" y="20.1082" width="1.0583" height="1.0583" />
<rect x="22.2248" y="20.1082" width="1.0583" height="1.0583" />
<rect x="26.4581" y="20.1082" width="1.0583" height="1.0583" />
<rect x="27.5164" y="20.1082" width="1.0583" height="1.0583" />
<rect x="29.6331" y="20.1082" width="1.0583" height="1.0583" />
<rect x="30.6914" y="20.1082" width="1.0583" height="1.0583" />
<rect x="31.7497" y="20.1082" width="1.0583" height="1.0583" />
<rect x="34.9247" y="20.1082" width="1.0583" height="1.0583" />
</g>
<g fill="rgb(0%,0%,0%)">
<rect x="0.0000" y="21.1665" width="1.0583" height="1.0583" />
<rect x="2.1166" y="21.1665" width="1.0583" height="1.0583" />
<rect x="4.2333" y="21.1665" width="1.0583" height="1.0583" />
<rect x="6.3499" y="21.1665" width="1.0583" height="1.0583" />
<rect x="8.4666" y="21.1665" width="1.0583" height="1.0583" />
<rect x="11.6416" y="21.1665" width="1.0583" height="1.0583" />
<rect x="13.7582" y="21.1665" width="1.0583" height="1.0583" />
<rect x="14.8165" y="21.1665" width="1.0583" height="1.0583" />
<rect x="19.0498" y="21.1665" width="1.0583" height="1.0583" />
<rect x="20.1082" y="21.1665" width="1.0583" height="1.0583" />
<rect x="22.2248" y="21.1665" width="1.0583" height="1.0583" />
<rect x="23.2831" y="21.1665" width="1.0583" height="1.0583" />
<rect x="24.3415" y="21.1665" width="1.0583" height="1.0583" />
<rect x="25.3998" y="21.1665" width="1.0583" height="1.0583" />
<rect x="26.4581" y="21.1665" width="1.0583" height="1.0583" />
<rect x="27.5164" y="21.1665" width="1.0583" height="1.0583" />
<rect x="30.6914" y="21.1665" width="1.0583" height="1.0583" />
<rect x="31.7497" y="21.1665" width="1.0583" height="1.0583" />
<rect x="32.8081" y="21.1665" width="1.0583" height="1.0583" />
<rect x="37.0414" y="21.1665" width="1.0583" height="1.0583" />
</g>
<g fill="rgb(0%,0%,0%)">
<rect x="0.0000" y="22.2248" width="1.0583" height="1.0583" />
<rect x="8.4666" y="22.2248" width="1.0583" height="1.0583" />
<rect x="10.5832" y="22.2248" width="1.0583" height="1.0583" />
<rect x="12.6999" y="22.2248" width="1.0583" height="1.0583" />
<rect x="13.7582" y="22.2248" width="1.0583" height="1.0583" />
<rect x="15.8749" y="22.2248" width="1.0583" height="1.0583" />
<rect x="16.9332" y="22.2248" width="1.0583" height="1.0583" />
<rect x="22.2248" y="22.2248" width="1.0583" height="1.0583" />
<rect x="23.2831" y="22.2248" width="1.0583" height="1.0583" />
<rect x="24.3415" y="22.2248" width="1.0583" height="1.0583" />
<rect x="25.3998" y="22.2248" width="1.0583" height="1.0583" />
<rect x="26.4581" y="22.2248" width="1.0583" height="1.0583" />
<rect x="28.5748" y="22.2248" width="1.0583" height="1.0583" />
<rect x="29.6331" y="22.2248" width="1.0583" height="1.0583" />
<rect x="31.7497" y="22.2248" width="1.0583" height="1.0583" />
<rect x="32.8081" y="22.2248" width="1.0583" height="1.0583" />
<rect x="33.8664" y="22.2248" width="1.0583" height="1.0583" />
<rect x="38.0997" y="22.2248" width="1.0583" height="1.0583" />
</g>
<g fill="rgb(0%,0%,0%)">
<rect x="0.0000" y="23.2831" width="1.0583" height="1.0583" />
<rect x="1.0583" y="23.2831" width="1.0583" height="1.0583" />
<rect x="2.1166" y="23.2831" width="1.0583" height="1.0583" />
<rect x="3.1750" y="23.2831" width="1.0583" height="1.0583" />
<rect x="5.2916" y="23.2831" width="1.0583" height="1.0583" />
<rect x="6.3499" y="23.2831" width="1.0583" height="1.0583" />
<rect x="8.4666" y="23.2831" width="1.0583" height="1.0583" />
<rect x="11.6416" y="23.2831" width="1.0583" height="1.0583" />
<rect x="12.6999" y="23.2831" width="1.0583" height="1.0583" />
<rect x="13.7582" y="23.2831" width="1.0583" height="1.0583" />
<rect x="15.8749" y="23.2831" width="1.0583" height="1.0583" />
<rect x="21.1665" y="23.2831" width="1.0583" height="1.0583" />
<rect x="22.2248" y="23.2831" width="1.0583" height="1.0583" />
<rect x="23.2831" y="23.2831" width="1.0583" height="1.0583" />
<rect x="26.4581" y="23.2831" width="1.0583" height="1.0583" />
<rect x="28.5748" y="23.2831" width="1.0583" height="1.0583" />
<rect x="30.6914" y="23.2831" width="1.0583" height="1.0583" />
<rect x="31.7497" y="23.2831" width="1.0583" height="1.0583" />
<rect x="34.9247" y="23.2831" width="1.0583" height="1.0583" />
</g>
<g fill="rgb(0%,0%,0%)">
<rect x="0.0000" y="24.3415" width="1.0583" height="1.0583" />
<rect x="3.1750" y="24.3415" width="1.0583" height="1.0583" />
<rect x="4.2333" y="24.3415" width="1.0583" height="1.0583" />
<rect x="5.2916" y="24.3415" width="1.0583" height="1.0583" />
<rect x="7.4083" y="24.3415" width="1.0583" height="1.0583" />
<rect x="8.4666" y="24.3415" width="1.0583" height="1.0583" />
<rect x="11.6416" y="24.3415" width="1.0583" height="1.0583" />
<rect x="14.8165" y="24.3415" width="1.0583" height="1.0583" />
<rect x="16.9332" y="24.3415" width="1.0583" height="1.0583" />
<rect x="17.9915" y="24.3415" width="1.0583" height="1.0583" />
<rect x="19.0498" y="24.3415" width="1.0583" height="1.0583" />
<rect x="22.2248" y="24.3415" width="1.0583" height="1.0583" />
<rect x="27.5164" y="24.3415" width="1.0583" height="1.0583" />
<rect x="29.6331" y="24.3415" width="1.0583" height="1.0583" />
<rect x="30.6914" y="24.3415" width="1.0583" height="1.0583" />
<rect x="31.7497" y="24.3415" width="1.0583" height="1.0583" />
<rect x="34.9247" y="24.3415" width="1.0583" height="1.0583" />
<rect x="35.9830" y="24.3415" width="1.0583" height="1.0583" />
<rect x="37.0414" y="24.3415" width="1.0583" height="1.0583" />
</g>
<g fill="rgb(0%,0%,0%)">
<rect x="0.0000" y="25.3998" width="1.0583" height="1.0583" />
<rect x="1.0583" y="25.3998" width="1.0583" height="1.0583" />
<rect x="2.1166" y="25.3998" width="1.0583" height="1.0583" />
<rect x="3.1750" y="25.3998" width="1.0583" height="1.0583" />
<rect x="4.2333" y="25.3998" width="1.0583" height="1.0583" />
<rect x="5.2916" y="25.3998" width="1.0583" height="1.0583" />
<rect x="6.3499" y="25.3998" width="1.0583" height="1.0583" />
<rect x="8.4666" y="25.3998" width="1.0583" height="1.0583" />
<rect x="9.5249" y="25.3998" width="1.0583" height="1.0583" />
<rect x="10.5832" y="25.3998" width="1.0583" height="1.0583" />
<rect x="12.6999" y="25.3998" width="1.0583" height="1.0583" />
<rect x="15.8749" y="25.3998" width="1.0583" height="1.0583" />
<rect x="19.0498" y="25.3998" width="1.0583" height="1.0583" />
<rect x="22.2248" y="25.3998" width="1.0583" height="1.0583" />
<rect x="23.2831" y="25.3998" width="1.0583" height="1.0583" />
<rect x="24.3415" y="25.3998" width="1.0583" height="1.0583" />
<rect x="26.4581" y="25.3998" width="1.0583" height="1.0583" />
<rect x="27.5164" y="25.3998" width="1.0583" height="1.0583" />
<rect x="28.5748" y="25.3998" width="1.0583" height="1.0583" />
<rect x="30.6914" y="25.3998" width="1.0583" height="1.0583" />
<rect x="31.7497" y="25.3998" width="1.0583" height="1.0583" />
<rect x="32.8081" y="25.3998" width="1.0583" height="1.0583" />
<rect x="33.8664" y="25.3998" width="1.0583" height="1.0583" />
<rect x="37.0414" y="25.3998" width="1.0583" height="1.0583" />
<rect x="38.0997" y="25.3998" width="1.0583" height="1.0583" />
</g>
<g fill="rgb(0%,0%,0%)">
<rect x="0.0000" y="26.4581" width="1.0583" height="1.0583" />
<rect x="5.2916" y="26.4581" width="1.0583" height="1.0583" />
<rect x="7.4083" y="26.4581" width="1.0583" height="1.0583" />
<rect x="8.4666" y="26.4581" width="1.0583" height="1.0583" />
<rect x="9.5249" y="26.4581" width="1.0583" height="1.0583" />
<rect x="14.8165" y="26.4581" width="1.0583" height="1.0583" />
<rect x="16.9332" y="26.4581" width="1.0583" height="1.0583" />
<rect x="17.9915" y="26.4581" width="1.0583" height="1.0583" />
<rect x="19.0498" y="26.4581" width="1.0583" height="1.0583" />
<rect x="22.2248" y="26.4581" width="1.0583" height="1.0583" />
<rect x="23.2831" y="26.4581" width="1.0583" height="1.0583" />
<rect x="27.5164" y="26.4581" width="1.0583" height="1.0583" />
<rect x="29.6331" y="26.4581" width="1.0583" height="1.0583" />
<rect x="32.8081" y="26.4581" width="1.0583" height="1.0583" />
<rect x="34.9247" y="26.4581" width="1.0583" height="1.0583" />
<rect x="38.0997" y="26.4581" width="1.0583" height="1.0583" />
</g>
<g fill="rgb(0%,0%,0%)">
<rect x="3.1750" y="27.5164" width="1.0583" height="1.0583" />
<rect x="5.2916" y="27.5164" width="1.0583" height="1.0583" />
<rect x="6.3499" y="27.5164" width="1.0583" height="1.0583" />
<rect x="8.4666" y="27.5164" width="1.0583" height="1.0583" />
<rect x="9.5249" y="27.5164" width="1.0583" height="1.0583" />
<rect x="10.5832" y="27.5164" width="1.0583" height="1.0583" />
<rect x="13.7582" y="27.5164" width="1.0583" height="1.0583" />
<rect x="15.8749" y="27.5164" width="1.0583" height="1.0583" />
<rect x="21.1665" y="27.5164" width="1.0583" height="1.0583" />
<rect x="23.2831" y="27.5164" width="1.0583" height="1.0583" />
<rect x="25.3998" y="27.5164" width="1.0583" height="1.0583" />
<rect x="26.4581" y="27.5164" width="1.0583" height="1.0583" />
<rect x="28.5748" y="27.5164" width="1.0583" height="1.0583" />
<rect x="30.6914" y="27.5164" width="1.0583" height="1.0583" />
<rect x="34.9247" y="27.5164" width="1.0583" height="1.0583" />
<rect x="38.0997" y="27.5164" width="1.0583" height="1.0583" />
</g>
<g fill="rgb(0%,0%,0%)">
<rect x="2.1166" y="28.5748" width="1.0583" height="1.0583" />
<rect x="3.1750" y="28.5748" width="1.0583" height="1.0583" />
<rect x="10.5832" y="28.5748" width="1.0583" height="1.0583" />
<rect x="12.6999" y="28.5748" width="1.0583" height="1.0583" />
<rect x="14.8165" y="28.5748" width="1.0583" height="1.0583" />
<rect x="16.9332" y="28.5748" width="1.0583" height="1.0583" />
<rect x="17.9915" y="28.5748" width="1.0583" height="1.0583" />
<rect x="19.0498" y="28.5748" width="1.0583" height="1.0583" />
<rect x="20.1082" y="28.5748" width="1.0583" height="1.0583" />
<rect x="22.2248" y="28.5748" width="1.0583" height="1.0583" />
<rect x="24.3415" y="28.5748" width="1.0583" height="1.0583" />
<rect x="27.5164" y="28.5748" width="1.0583" height="1.0583" />
<rect x="29.6331" y="28.5748" width="1.0583" height="1.0583" />
<rect x="32.8081" y="28.5748" width="1.0583" height="1.0583" />
<rect x="34.9247" y="28.5748" width="1.0583" height="1.0583" />
<rect x="35.9830" y="28.5748" width="1.0583" height="1.0583" />
<rect x="37.0414" y="28.5748" width="1.0583" height="1.0583" />
<rect x="38.0997" y="28.5748" width="1.0583" height="1.0583" />
</g>
<g fill="rgb(0%,0%,0%)">
<rect x="0.0000" y="29.6331" width="1.0583" height="1.0583" />
<rect x="1.0583" y="29.6331" width="1.0583" height="1.0583" />
<rect x="2.1166" y="29.6331" width="1.0583" height="1.0583" />
<rect x="3.1750" y="29.6331" width="1.0583" height="1.0583" />
<rect x="4.2333" y="29.6331" width="1.0583" height="1.0583" />
<rect x="5.2916" y="29.6331" width="1.0583" height="1.0583" />
<rect x="6.3499" y="29.6331" width="1.0583" height="1.0583" />
<rect x="7.4083" y="29.6331" width="1.0583" height="1.0583" />
<rect x="8.4666" y="29.6331" width="1.0583" height="1.0583" />
<rect x="10.5832" y="29.6331" width="1.0583" height="1.0583" />
<rect x="11.6416" y="29.6331" width="1.0583" height="1.0583" />
<rect x="15.8749" y="29.6331" width="1.0583" height="1.0583" />
<rect x="17.9915" y="29.6331" width="1.0583" height="1.0583" />
<rect x="21.1665" y="29.6331" width="1.0583" height="1.0583" />
<rect x="22.2248" y="29.6331" width="1.0583" height="1.0583" />
<rect x="25.3998" y="29.6331" width="1.0583" height="1.0583" />
<rect x="28.5748" y="29.6331" width="1.0583" height="1.0583" />
<rect x="29.6331" y="29.6331" width="1.0583" height="1.0583" />
<rect x="30.6914" y="29.6331" width="1.0583" height="1.0583" />
<rect x="31.7497" y="29.6331" width="1.0583" height="1.0583" />
<rect x="32.8081" y="29.6331" width="1.0583" height="1.0583" />
<rect x="33.8664" y="29.6331" width="1.0583" height="1.0583" />
<rect x="34.9247" y="29.6331" width="1.0583" height="1.0583" />
<rect x="35.9830" y="29.6331" width="1.0583" height="1.0583" />
<rect x="37.0414" y="29.6331" width="1.0583" height="1.0583" />
</g>
<g fill="rgb(0%,0%,0%)">
<rect x="8.4666" y="30.6914" width="1.0583" height="1.0583" />
<rect x="10.5832" y="30.6914" width="1.0583" height="1.0583" />
<rect x="12.6999" y="30.6914" width="1.0583" height="1.0583" />
<rect x="15.8749" y="30.6914" width="1.0583" height="1.0583" />
<rect x="17.9915" y="30.6914" width="1.0583" height="1.0583" />
<rect x="20.1082" y="30.6914" width="1.0583" height="1.0583" />
<rect x="21.1665" y="30.6914" width="1.0583" height="1.0583" />
<rect x="22.2248" y="30.6914" width="1.0583" height="1.0583" />
<rect x="23.2831" y="30.6914" width="1.0583" height="1.0583" />
<rect x="24.3415" y="30.6914" width="1.0583" height="1.0583" />
<rect x="25.3998" y="30.6914" width="1.0583" height="1.0583" />
<rect x="29.6331" y="30.6914" width="1.0583" height="1.0583" />
<rect x="33.8664" y="30.6914" width="1.0583" height="1.0583" />
<rect x="34.9247" y="30.6914" width="1.0583" height="1.0583" />
<rect x="35.9830" y="30.6914" width="1.0583" height="1.0583" />
<rect x="37.0414" y="30.6914" width="1.0583" height="1.0583" />
</g>
<g fill="rgb(0%,0%,0%)">
<rect x="0.0000" y="31.7497" width="1.0583" height="1.0583" />
<rect x="1.0583" y="31.7497" width="1.0583" height="1.0583" />
<rect x="2.1166" y="31.7497" width="1.0583" height="1.0583" />
<rect x="3.1750" y="31.7497" width="1.0583" height="1.0583" />
<rect x="4.2333" y="31.7497" width="1.0583" height="1.0583" />
<rect x="5.2916" y="31.7497" width="1.0583" height="1.0583" />
<rect x="6.3499" y="31.7497" width="1.0583" height="1.0583" />
<rect x="10.5832" y="31.7497" width="1.0583" height="1.0583" />
<rect x="11.6416" y="31.7497" width="1.0583" height="1.0583" />
<rect x="12.6999" y="31.7497" width="1.0583" height="1.0583" />
<rect x="17.9915" y="31.7497" width="1.0583" height="1.0583" />
<rect x="21.1665" y="31.7497" width="1.0583" height="1.0583" />
<rect x="23.2831" y="31.7497" width="1.0583" height="1.0583" />
<rect x="25.3998" y="31.7497" width="1.0583" height="1.0583" />
<rect x="29.6331" y="31.7497" width="1.0583" height="1.0583" />
<rect x="31.7497" y="31.7497" width="1.0583" height="1.0583" />
<rect x="33.8664" y="31.7497" width="1.0583" height="1.0583" />
<rect x="35.9830" y="31.7497" width="1.0583" height="1.0583" />
<rect x="37.0414" y="31.7497" width="1.0583" height="1.0583" />
</g>
<g fill="rgb(0%,0%,0%)">
<rect x="0.0000" y="32.8081" width="1.0583" height="1.0583" />
<rect x="6.3499" y="32.8081" width="1.0583" height="1.0583" />
<rect x="8.4666" y="32.8081" width="1.0583" height="1.0583" />
<rect x="10.5832" y="32.8081" width="1.0583" height="1.0583" />
<rect x="11.6416" y="32.8081" width="1.0583" height="1.0583" />
<rect x="13.7582" y="32.8081" width="1.0583" height="1.0583" />
<rect x="14.8165" y="32.8081" width="1.0583" height="1.0583" />
<rect x="16.9332" y="32.8081" width="1.0583" height="1.0583" />
<rect x="17.9915" y="32.8081" width="1.0583" height="1.0583" />
<rect x="19.0498" y="32.8081" width="1.0583" height="1.0583" />
<rect x="20.1082" y="32.8081" width="1.0583" height="1.0583" />
<rect x="27.5164" y="32.8081" width="1.0583" height="1.0583" />
<rect x="28.5748" y="32.8081" width="1.0583" height="1.0583" />
<rect x="29.6331" y="32.8081" width="1.0583" height="1.0583" />
<rect x="33.8664" y="32.8081" width="1.0583" height="1.0583" />
<rect x="35.9830" y="32.8081" width="1.0583" height="1.0583" />
<rect x="37.0414" y="32.8081" width="1.0583" height="1.0583" />
<rect x="38.0997" y="32.8081" width="1.0583" height="1.0583" />
</g>
<g fill="rgb(0%,0%,0%)">
<rect x="0.0000" y="33.8664" width="1.0583" height="1.0583" />
<rect x="2.1166" y="33.8664" width="1.0583" height="1.0583" />
<rect x="3.1750" y="33.8664" width="1.0583" height="1.0583" />
<rect x="4.2333" y="33.8664" width="1.0583" height="1.0583" />
<rect x="6.3499" y="33.8664" width="1.0583" height="1.0583" />
<rect x="8.4666" y="33.8664" width="1.0583" height="1.0583" />
<rect x="10.5832" y="33.8664" width="1.0583" height="1.0583" />
<rect x="12.6999" y="33.8664" width="1.0583" height="1.0583" />
<rect x="13.7582" y="33.8664" width="1.0583" height="1.0583" />
<rect x="15.8749" y="33.8664" width="1.0583" height="1.0583" />
<rect x="16.9332" y="33.8664" width="1.0583" height="1.0583" />
<rect x="19.0498" y="33.8664" width="1.0583" height="1.0583" />
<rect x="20.1082" y="33.8664" width="1.0583" height="1.0583" />
<rect x="22.2248" y="33.8664" width="1.0583" height="1.0583" />
<rect x="24.3415" y="33.8664" width="1.0583" height="1.0583" />
<rect x="25.3998" y="33.8664" width="1.0583" height="1.0583" />
<rect x="28.5748" y="33.8664" width="1.0583" height="1.0583" />
<rect x="29.6331" y="33.8664" width="1.0583" height="1.0583" />
<rect x="30.6914" y="33.8664" width="1.0583" height="1.0583" />
<rect x="31.7497" y="33.8664" width="1.0583" height="1.0583" />
<rect x="32.8081" y="33.8664" width="1.0583" height="1.0583" />
<rect x="33.8664" y="33.8664" width="1.0583" height="1.0583" />
<rect x="34.9247" y="33.8664" width="1.0583" height="1.0583" />
<rect x="35.9830" y="33.8664" width="1.0583" height="1.0583" />
<rect x="37.0414" y="33.8664" width="1.0583" height="1.0583" />
<rect x="38.0997" y="33.8664" width="1.0583" height="1.0583" />
</g>
<g fill="rgb(0%,0%,0%)">
<rect x="0.0000" y="34.9247" width="1.0583" height="1.0583" />
<rect x="2.1166" y="34.9247" width="1.0583" height="1.0583" />
<rect x="3.1750" y="34.9247" width="1.0583" height="1.0583" />
<rect x="4.2333" y="34.9247" width="1.0583" height="1.0583" />
<rect x="6.3499" y="34.9247" width="1.0583" height="1.0583" />
<rect x="9.5249" y="34.9247" width="1.0583" height="1.0583" />
<rect x="15.8749" y="34.9247" width="1.0583" height="1.0583" />
<rect x="19.0498" y="34.9247" width="1.0583" height="1.0583" />
<rect x="20.1082" y="34.9247" width="1.0583" height="1.0583" />
<rect x="21.1665" y="34.9247" width="1.0583" height="1.0583" />
<rect x="22.2248" y="34.9247" width="1.0583" height="1.0583" />
<rect x="24.3415" y="34.9247" width="1.0583" height="1.0583" />
<rect x="25.3998" y="34.9247" width="1.0583" height="1.0583" />
<rect x="26.4581" y="34.9247" width="1.0583" height="1.0583" />
<rect x="28.5748" y="34.9247" width="1.0583" height="1.0583" />
<rect x="29.6331" y="34.9247" width="1.0583" height="1.0583" />
<rect x="30.6914" y="34.9247" width="1.0583" height="1.0583" />
<rect x="35.9830" y="34.9247" width="1.0583" height="1.0583" />
<rect x="38.0997" y="34.9247" width="1.0583" height="1.0583" />
</g>
<g fill="rgb(0%,0%,0%)">
<rect x="0.0000" y="35.9830" width="1.0583" height="1.0583" />
<rect x="2.1166" y="35.9830" width="1.0583" height="1.0583" />
<rect x="3.1750" y="35.9830" width="1.0583" height="1.0583" />
<rect x="4.2333" y="35.9830" width="1.0583" height="1.0583" />
<rect x="6.3499" y="35.9830" width="1.0583" height="1.0583" />
<rect x="9.5249" y="35.9830" width="1.0583" height="1.0583" />
<rect x="15.8749" y="35.9830" width="1.0583" height="1.0583" />
<rect x="20.1082" y="35.9830" width="1.0583" height="1.0583" />
<rect x="21.1665" y="35.9830" width="1.0583" height="1.0583" />
<rect x="23.2831" y="35.9830" width="1.0583" height="1.0583" />
<rect x="24.3415" y="35.9830" width="1.0583" height="1.0583" />
<rect x="25.3998" y="35.9830" width="1.0583" height="1.0583" />
<rect x="26.4581" y="35.9830" width="1.0583" height="1.0583" />
<rect x="28.5748" y="35.9830" width="1.0583" height="1.0583" />
<rect x="32.8081" y="35.9830" width="1.0583" height="1.0583" />
<rect x="33.8664" y="35.9830" width="1.0583" height="1.0583" />
<rect x="34.9247" y="35.9830" width="1.0583" height="1.0583" />
<rect x="35.9830" y="35.9830" width="1.0583" height="1.0583" />
<rect x="37.0414" y="35.9830" width="1.0583" height="1.0583" />
</g>
<g fill="rgb(0%,0%,0%)">
<rect x="0.0000" y="37.0414" width="1.0583" height="1.0583" />
<rect x="6.3499" y="37.0414" width="1.0583" height="1.0583" />
<rect x="8.4666" y="37.0414" width="1.0583" height="1.0583" />
<rect x="9.5249" y="37.0414" width="1.0583" height="1.0583" />
<rect x="12.6999" y="37.0414" width="1.0583" height="1.0583" />
<rect x="16.9332" y="37.0414" width="1.0583" height="1.0583" />
<rect x="17.9915" y="37.0414" width="1.0583" height="1.0583" />
<rect x="20.1082" y="37.0414" width="1.0583" height="1.0583" />
<rect x="22.2248" y="37.0414" width="1.0583" height="1.0583" />
<rect x="27.5164" y="37.0414" width="1.0583" height="1.0583" />
<rect x="30.6914" y="37.0414" width="1.0583" height="1.0583" />
<rect x="33.8664" y="37.0414" width="1.0583" height="1.0583" />
<rect x="34.9247" y="37.0414" width="1.0583" height="1.0583" />
<rect x="37.0414" y="37.0414" width="1.0583" height="1.0583" />
<rect x="38.0997" y="37.0414" width="1.0583" height="1.0583" />
</g>
<g fill="rgb(0%,0%,0%)">
<rect x="0.0000" y="38.0997" width="1.0583" height="1.0583" />
<rect x="1.0583" y="38.0997" width="1.0583" height="1.0583" />
<rect x="2.1166" y="38.0997" width="1.0583" height="1.0583" />
<rect x="3.1750" y="38.0997" width="1.0583" height="1.0583" />
<rect x="4.2333" y="38.0997" width="1.0583" height="1.0583" />
<rect x="5.2916" y="38.0997" width="1.0583" height="1.0583" />
<rect x="6.3499" y="38.0997" width="1.0583" height="1.0583" />
<rect x="8.4666" y="38.0997" width="1.0583" height="1.0583" />
<rect x="9.5249" y="38.0997" width="1.0583" height="1.0583" />
<rect x="11.6416" y="38.0997" width="1.0583" height="1.0583" />
<rect x="12.6999" y="38.0997" width="1.0583" height="1.0583" />
<rect x="13.7582" y="38.0997" width="1.0583" height="1.0583" />
<rect x="14.8165" y="38.0997" width="1.0583" height="1.0583" />
<rect x="15.8749" y="38.0997" width="1.0583" height="1.0583" />
<rect x="19.0498" y="38.0997" width="1.0583" height="1.0583" />
<rect x="21.1665" y="38.0997" width="1.0583" height="1.0583" />
<rect x="23.2831" y="38.0997" width="1.0583" height="1.0583" />
<rect x="30.6914" y="38.0997" width="1.0583" height="1.0583" />
<rect x="32.8081" y="38.0997" width="1.0583" height="1.0583" />
<rect x="38.0997" y="38.0997" width="1.0583" height="1.0583" />
</g>
</svg>
